<svg width="73" height="71" viewBox="0 0 73 71" fill="none" xmlns="http://www.w3.org/2000/svg">
<path d="M28.6875 58V20.5H59.9619C62.3057 20.5 64.1937 20.6953 65.626 21.0859C67.0583 21.4603 68.1569 22.0218 68.9219 22.7705C69.7031 23.5029 70.224 24.4225 70.4844 25.5293C70.7448 26.6361 70.875 27.9056 70.875 29.3379C70.875 30.3796 70.7855 31.2992 70.6064 32.0967C70.4274 32.8942 70.1914 33.5859 69.8984 34.1719C69.6055 34.7578 69.2718 35.2542 68.8975 35.6611C68.5231 36.0518 68.1406 36.3773 67.75 36.6377C66.8385 37.2562 65.7969 37.6061 64.625 37.6875C66.0898 37.7689 67.3919 38.127 68.5312 38.7617C69.0195 39.0384 69.4915 39.3883 69.9473 39.8115C70.4193 40.2184 70.8343 40.7311 71.1924 41.3496C71.5667 41.9518 71.8678 42.668 72.0957 43.498C72.3236 44.3118 72.4375 45.2559 72.4375 46.3301C72.4375 47.6322 72.3724 48.8285 72.2422 49.9189C72.1283 50.9932 71.8841 51.9616 71.5098 52.8242C71.1354 53.6868 70.5983 54.4437 69.8984 55.0947C69.1986 55.7458 68.2627 56.291 67.0908 56.7305C65.9352 57.1536 64.5111 57.471 62.8184 57.6826C61.1419 57.8942 59.1318 58 56.7881 58H28.6875ZM55.2256 54.0938C57.0485 54.0938 58.6273 54.0693 59.9619 54.0205C61.2965 53.9554 62.4277 53.8333 63.3555 53.6543C64.2832 53.459 65.0319 53.1904 65.6016 52.8486C66.1712 52.4906 66.6107 52.0267 66.9199 51.457C67.2454 50.8711 67.4652 50.1631 67.5791 49.333C67.693 48.5029 67.75 47.502 67.75 46.3301C67.75 45.4186 67.693 44.6292 67.5791 43.9619C67.4652 43.2783 67.2454 42.7087 66.9199 42.2529C66.6107 41.7809 66.1712 41.4066 65.6016 41.1299C65.0319 40.8369 64.2832 40.609 63.3555 40.4463C62.4277 40.2835 61.2965 40.1777 59.9619 40.1289C58.6273 40.0638 57.0485 40.0312 55.2256 40.0312H33.375V54.0938H55.2256ZM55.2256 36.125C56.8206 36.125 58.196 36.0924 59.3516 36.0273C60.5072 35.9622 61.4919 35.8402 62.3057 35.6611C63.1195 35.4821 63.7786 35.238 64.2832 34.9287C64.7878 34.6032 65.1784 34.1882 65.4551 33.6836C65.748 33.179 65.9434 32.5768 66.041 31.877C66.1387 31.1608 66.1875 30.3145 66.1875 29.3379C66.1875 28.2962 66.0736 27.4499 65.8457 26.7988C65.6178 26.1478 65.2109 25.6514 64.625 25.3096C64.0391 24.9515 63.2415 24.7155 62.2324 24.6016C61.2396 24.4714 59.9619 24.4062 58.3994 24.4062H33.375V36.125H55.2256Z" fill="black"/>
<path d="M4.6875 58V20.5H9.375V54.0938H39.0625V58H4.6875Z" fill="black"/>
</svg>
